# xmcd CD database file
#
# Track frame offsets:
#	150
#	21828
#	39881
#	56710
#	71229
#	86322
#	98043
#	113967
#	126433
#	142265
#	156128
#	167076
#	184632
#	198747
#	213395
#	228704
#	245298
#	261053
#	275159
#	288115
#	304435
#	325835
#	342983
#
# Disc length: 4764 seconds
#
# Revision: 0
# Processed by: cddbd v1.5.1PL0 Copyright (c) Steve Scherf et al.
# Submitted via: CDex 1.50beta9
#
DISCID=61129a17
DTITLE=Madeleine Peyroux - Dreamland (1-12) Careless Love (13-24)
DYEAR=1900
DGENRE=Jazz
TTITLE0=01 - Walkin' After Midnight
TTITLE1=02 - Hey Sweet Man
TTITLE2=03 - I'm Gonna Sit Right Down
TTITLE3=04 - (Getting Some) Fun Out Of Life
TTITLE4=05 - La Vie En Rose
TTITLE5=07 - A Prayer
TTITLE6=08 - Muddy Water
TTITLE7=09 - Was I
TTITLE8=10 - Dreamland
TTITLE9=11 - Reckless Blues
TTITLE10=12 - Lovesick Blues
TTITLE11=13 - Dance Me To The End Of Love
TTITLE12=14 - Don't Wait Too Long
TTITLE13=15 - Don't Cry Baby
TTITLE14=16 - You're Gonna Make Me Lonesome
TTITLE15=17 - Between The Bars
TTITLE16=18 - No More
TTITLE17=19 - Lonesome Road
TTITLE18=20 - J'ai Deux Amours
TTITLE19=21 - Weary Blues
TTITLE20=22 - I'll Look Around
TTITLE21=23 - Careless Love
TTITLE22=24 - This Is Heaven To Me
EXTD=
EXTT0=
EXTT1=
EXTT2=
EXTT3=
EXTT4=
EXTT5=
EXTT6=
EXTT7=
EXTT8=
EXTT9=
EXTT10=
EXTT11=
EXTT12=
EXTT13=
EXTT14=
EXTT15=
EXTT16=
EXTT17=
EXTT18=
EXTT19=
EXTT20=
EXTT21=
EXTT22=
PLAYORDER=
